<svg xmlns="http://www.w3.org/2000/svg" xmlns:xlink="http://www.w3.org/1999/xlink" width="500" zoomAndPan="magnify" viewBox="0 0 375 374.999991" height="500" preserveAspectRatio="xMidYMid meet" version="1.0"><defs><clipPath id="129c03b5f1"><path d="M 202.125 104.390625 L 308.75 104.390625 L 308.75 269.304688 L 202.125 269.304688 Z M 202.125 104.390625 " clip-rule="nonzero"/></clipPath><clipPath id="dd609b3024"><path d="M 21.503906 37.511719 L 220 37.511719 L 220 312.730469 L 21.503906 312.730469 Z M 21.503906 37.511719 " clip-rule="nonzero"/></clipPath><clipPath id="48e108872f"><path d="M 298 195 L 329.277344 195 L 329.277344 312.476562 L 298 312.476562 Z M 298 195 " clip-rule="nonzero"/></clipPath><clipPath id="662bc6890f"><path d="M 294.027344 152.726562 L 329.277344 152.726562 L 329.277344 312.476562 L 294.027344 312.476562 Z M 294.027344 152.726562 " clip-rule="nonzero"/></clipPath><clipPath id="2c92c93d11"><path d="M 183 122 L 194 122 L 194 134 L 183 134 Z M 183 122 " clip-rule="nonzero"/></clipPath><clipPath id="13fb9cbb8e"><path d="M 173.628906 95.867188 L 241.816406 77.953125 L 256.679688 134.53125 L 188.496094 152.445312 Z M 173.628906 95.867188 " clip-rule="nonzero"/></clipPath><clipPath id="c1e54198a3"><path d="M 173.628906 95.867188 L 241.816406 77.953125 L 256.679688 134.53125 L 188.496094 152.445312 Z M 173.628906 95.867188 " clip-rule="nonzero"/></clipPath><clipPath id="df4c00e68a"><path d="M 185 121 L 198 121 L 198 133 L 185 133 Z M 185 121 " clip-rule="nonzero"/></clipPath><clipPath id="2958c7d938"><path d="M 173.628906 95.867188 L 241.816406 77.953125 L 256.679688 134.53125 L 188.496094 152.445312 Z M 173.628906 95.867188 " clip-rule="nonzero"/></clipPath><clipPath id="7eae1869fd"><path d="M 173.628906 95.867188 L 241.816406 77.953125 L 256.679688 134.53125 L 188.496094 152.445312 Z M 173.628906 95.867188 " clip-rule="nonzero"/></clipPath><clipPath id="d0cb332952"><path d="M 184 84 L 225 84 L 225 119 L 184 119 Z M 184 84 " clip-rule="nonzero"/></clipPath><clipPath id="1b5c5f3bc7"><path d="M 173.628906 95.867188 L 241.816406 77.953125 L 256.679688 134.53125 L 188.496094 152.445312 Z M 173.628906 95.867188 " clip-rule="nonzero"/></clipPath><clipPath id="eb4450bd3c"><path d="M 173.628906 95.867188 L 241.816406 77.953125 L 256.679688 134.53125 L 188.496094 152.445312 Z M 173.628906 95.867188 " clip-rule="nonzero"/></clipPath><clipPath id="bde2a0c236"><path d="M 179 115 L 206 115 L 206 133 L 179 133 Z M 179 115 " clip-rule="nonzero"/></clipPath><clipPath id="cd6feee351"><path d="M 173.628906 95.867188 L 241.816406 77.953125 L 256.679688 134.53125 L 188.496094 152.445312 Z M 173.628906 95.867188 " clip-rule="nonzero"/></clipPath><clipPath id="c210c368b6"><path d="M 173.628906 95.867188 L 241.816406 77.953125 L 256.679688 134.53125 L 188.496094 152.445312 Z M 173.628906 95.867188 " clip-rule="nonzero"/></clipPath><clipPath id="f4d29606ff"><path d="M 222 124 L 249 124 L 249 135 L 222 135 Z M 222 124 " clip-rule="nonzero"/></clipPath><clipPath id="0455214f67"><path d="M 173.628906 95.867188 L 241.816406 77.953125 L 256.679688 134.53125 L 188.496094 152.445312 Z M 173.628906 95.867188 " clip-rule="nonzero"/></clipPath><clipPath id="a4dabefc29"><path d="M 173.628906 95.867188 L 241.816406 77.953125 L 256.679688 134.53125 L 188.496094 152.445312 Z M 173.628906 95.867188 " clip-rule="nonzero"/></clipPath><clipPath id="c9b325cc18"><path d="M 212 114 L 226 114 L 226 128 L 212 128 Z M 212 114 " clip-rule="nonzero"/></clipPath><clipPath id="f69d0b6769"><path d="M 173.628906 95.867188 L 241.816406 77.953125 L 256.679688 134.53125 L 188.496094 152.445312 Z M 173.628906 95.867188 " clip-rule="nonzero"/></clipPath><clipPath id="aef8cdab2b"><path d="M 173.628906 95.867188 L 241.816406 77.953125 L 256.679688 134.53125 L 188.496094 152.445312 Z M 173.628906 95.867188 " clip-rule="nonzero"/></clipPath><clipPath id="14a6dec90a"><path d="M 247 120 L 257 120 L 257 137 L 247 137 Z M 247 120 " clip-rule="nonzero"/></clipPath><clipPath id="dda933346c"><path d="M 173.628906 95.867188 L 241.816406 77.953125 L 256.679688 134.53125 L 188.496094 152.445312 Z M 173.628906 95.867188 " clip-rule="nonzero"/></clipPath><clipPath id="9b0926f524"><path d="M 173.628906 95.867188 L 241.816406 77.953125 L 256.679688 134.53125 L 188.496094 152.445312 Z M 173.628906 95.867188 " clip-rule="nonzero"/></clipPath><clipPath id="db23fbaced"><path d="M 197 92 L 232 92 L 232 129 L 197 129 Z M 197 92 " clip-rule="nonzero"/></clipPath><clipPath id="5b1a311893"><path d="M 173.628906 95.867188 L 241.816406 77.953125 L 256.679688 134.53125 L 188.496094 152.445312 Z M 173.628906 95.867188 " clip-rule="nonzero"/></clipPath><clipPath id="d7b985d994"><path d="M 173.628906 95.867188 L 241.816406 77.953125 L 256.679688 134.53125 L 188.496094 152.445312 Z M 173.628906 95.867188 " clip-rule="nonzero"/></clipPath></defs><rect x="-37.5" width="450" fill="#ffffff" y="-37.499999" height="449.999989" fill-opacity="1"/><rect x="-37.5" width="450" fill="#ffffff" y="-37.499999" height="449.999989" fill-opacity="1"/><g clip-path="url(#129c03b5f1)"><path fill="#ed1c24" d="M 238.417969 269.292969 L 308.75 104.476562 L 246.804688 104.476562 L 202.277344 208.824219 C 216.390625 229.613281 228.402344 250.242188 238.417969 269.292969 " fill-opacity="1" fill-rule="nonzero"/></g><g clip-path="url(#dd609b3024)"><path fill="#b6192a" d="M 219.882812 312.730469 C 219.882812 312.730469 161.136719 124.5625 21.503906 37.511719 C 21.503906 37.511719 87.886719 113.109375 157.9375 312.730469 L 219.882812 312.730469 " fill-opacity="1" fill-rule="nonzero"/></g><path fill="#ed1c24" d="M 242.453125 259.832031 C 218.195312 213.347656 181.957031 157.070312 132.136719 111.992188 C 179.21875 172.566406 212.234375 236.316406 232.765625 282.539062 L 242.453125 259.832031 " fill-opacity="1" fill-rule="nonzero"/><path fill="#b6192a" d="M 212.125 185.75 L 206.425781 199.109375 C 220.523438 220.03125 232.5 240.757812 242.453125 259.832031 L 240 265.582031 L 249.078125 244.316406 C 238.625 225.515625 226.339844 205.585938 212.125 185.75 " fill-opacity="1" fill-rule="nonzero"/><g clip-path="url(#48e108872f)"><path fill="#b6192a" d="M 329.445312 195.15625 L 329.445312 281.34375 C 329.445312 298.550781 315.492188 312.5 298.285156 312.5 Z M 329.445312 195.15625 " fill-opacity="1" fill-rule="nonzero"/></g><g clip-path="url(#662bc6890f)"><path fill="#ed1c24" d="M 325.304688 195.15625 L 294.144531 312.5 L 294.144531 226.316406 C 294.144531 209.109375 308.097656 195.15625 325.304688 195.15625 Z M 311.796875 152.726562 C 302.046875 152.726562 294.144531 160.628906 294.144531 170.375 C 294.144531 180.125 302.046875 188.023438 311.796875 188.023438 C 321.542969 188.023438 329.445312 180.125 329.445312 170.375 C 329.445312 160.628906 321.539062 152.726562 311.796875 152.726562 Z M 311.796875 152.726562 " fill-opacity="1" fill-rule="nonzero"/></g><g clip-path="url(#2c92c93d11)"><g clip-path="url(#13fb9cbb8e)"><g clip-path="url(#c1e54198a3)"><path fill="#ed1c24" d="M 183.101562 123.304688 L 192.679688 133.964844 L 193.867188 132.898438 L 184.304688 122.222656 Z M 183.101562 123.304688 " fill-opacity="1" fill-rule="nonzero"/></g></g></g><g clip-path="url(#df4c00e68a)"><g clip-path="url(#2958c7d938)"><g clip-path="url(#7eae1869fd)"><path fill="#ed1c24" d="M 185.542969 121.109375 L 185.160156 121.457031 L 194.71875 132.128906 L 197.96875 129.210938 L 193.113281 123.394531 Z M 185.542969 121.109375 " fill-opacity="1" fill-rule="nonzero"/></g></g></g><g clip-path="url(#d0cb332952)"><g clip-path="url(#1b5c5f3bc7)"><g clip-path="url(#eb4450bd3c)"><path fill="#ed1c24" d="M 224.894531 91.855469 L 219.347656 86.257812 C 218.542969 85.441406 217.464844 84.988281 216.316406 84.984375 C 215.171875 84.976562 214.089844 85.417969 213.273438 86.226562 L 184.019531 115.199219 L 196.542969 118.972656 Z M 224.894531 91.855469 " fill-opacity="1" fill-rule="nonzero"/></g></g></g><g clip-path="url(#bde2a0c236)"><g clip-path="url(#cd6feee351)"><g clip-path="url(#c210c368b6)"><path fill="#ed1c24" d="M 196.367188 120.121094 L 181.238281 115.558594 C 180.976562 115.480469 180.703125 115.476562 180.445312 115.546875 C 180.222656 115.605469 180.011719 115.714844 179.839844 115.871094 C 179.4375 116.230469 179.269531 116.757812 179.386719 117.277344 C 179.503906 117.800781 179.882812 118.207031 180.394531 118.359375 L 193.609375 122.34375 C 193.71875 122.378906 193.8125 122.441406 193.886719 122.527344 L 202.097656 132.367188 C 202.40625 132.734375 202.835938 132.953125 203.3125 132.984375 C 203.789062 133.011719 204.242188 132.851562 204.59375 132.527344 C 205.265625 131.902344 205.332031 130.863281 204.746094 130.15625 Z M 196.367188 120.121094 " fill-opacity="1" fill-rule="nonzero"/></g></g></g><g clip-path="url(#f4d29606ff)"><g clip-path="url(#0455214f67)"><g clip-path="url(#a4dabefc29)"><path fill="#ed1c24" d="M 228.75 127.933594 L 225.328125 124.621094 L 222.605469 127.316406 L 226.273438 131.136719 C 229.273438 134.265625 233.742188 135.527344 237.9375 134.425781 L 248.113281 131.75 L 247.058594 127.742188 L 237.550781 130.238281 C 234.4375 131.058594 231.0625 130.175781 228.75 127.933594 Z M 228.75 127.933594 " fill-opacity="1" fill-rule="nonzero"/></g></g></g><g clip-path="url(#c9b325cc18)"><g clip-path="url(#f69d0b6769)"><g clip-path="url(#aef8cdab2b)"><path fill="#ed1c24" d="M 225.957031 120.941406 C 225.960938 120.007812 225.601562 119.125 224.941406 118.460938 L 221.117188 114.597656 L 212.621094 123.011719 L 216.449219 126.875 C 217.804688 128.246094 220.027344 128.253906 221.398438 126.898438 L 224.917969 123.410156 C 225.582031 122.753906 225.949219 121.875 225.957031 120.941406 Z M 225.957031 120.941406 " fill-opacity="1" fill-rule="nonzero"/></g></g></g><g clip-path="url(#14a6dec90a)"><g clip-path="url(#dda933346c)"><g clip-path="url(#9b0926f524)"><path fill="#ed1c24" d="M 251.417969 120.78125 L 247.957031 121.691406 C 247.285156 121.867188 246.886719 122.554688 247.0625 123.226562 L 250.222656 135.257812 C 250.398438 135.929688 251.085938 136.332031 251.757812 136.15625 L 255.214844 135.246094 C 255.886719 135.070312 256.289062 134.382812 256.113281 133.710938 L 252.953125 121.679688 C 252.777344 121.007812 252.085938 120.605469 251.417969 120.78125 Z M 251.417969 120.78125 " fill-opacity="1" fill-rule="nonzero"/></g></g></g><g clip-path="url(#db23fbaced)"><g clip-path="url(#5b1a311893)"><g clip-path="url(#d7b985d994)"><path fill="#ed1c24" d="M 220.714844 113.378906 L 230.535156 103.65625 C 231.347656 102.847656 231.800781 101.769531 231.804688 100.625 C 231.8125 99.476562 231.371094 98.394531 230.5625 97.578125 L 225.703125 92.671875 L 197.484375 119.664062 L 205.125 128.820312 Z M 203.964844 122.710938 C 202.992188 122.964844 202 122.382812 201.742188 121.414062 C 201.488281 120.441406 202.070312 119.445312 203.042969 119.191406 C 204.011719 118.9375 205.007812 119.515625 205.261719 120.488281 C 205.519531 121.460938 204.9375 122.453125 203.964844 122.710938 Z M 203.964844 122.710938 " fill-opacity="1" fill-rule="nonzero"/></g></g></g></svg>